<svg xmlns="http://www.w3.org/2000/svg" viewBox="144.628125 41.23060302734375 210.74375 67.5387939453125" preserveAspectRatio="xMidYMid"><defs><linearGradient id="editing-glowing-gradient" x1="0.6873032967079562" x2="0.31269670329204385" y1="0.9635919272833937" y2="0.03640807271660634"><stop offset="0" stop-color="#00c6ad"></stop><stop offset="1" stop-color="#7fd1ae"></stop></linearGradient><filter id="editing-glowing" x="-100%" y="-100%" width="300%" height="300%"><feGaussianBlur in="SourceGraphic" result="blur" stdDeviation="1"></feGaussianBlur><feMerge><feMergeNode in="blur"></feMergeNode><feMergeNode in="SourceGraphic"></feMergeNode></feMerge></filter></defs><g filter="url(#editing-glowing)"><g transform="translate(178.86500358581543, 90.01101970672607)"><path d="M8.29-15.14L8.29-15.14Q9.31-16.16 10.69-16.72L10.69-16.72L10.69-16.72Q12.06-17.28 13.57-17.28L13.57-17.28L13.57-17.28Q16.51-17.28 17.98-15.65L17.98-15.65L17.98-15.65Q19.46-14.02 19.46-10.94L19.46-10.94L19.46 0L13.09 0L13.09-10.18L13.09-10.18Q13.09-11.26 12.53-11.92L12.53-11.92L12.53-11.92Q11.97-12.58 10.94-12.58L10.94-12.58L10.94-12.58Q9.76-12.58 9.02-11.81L9.02-11.81L9.02-11.81Q8.29-11.04 8.29-9.92L8.29-9.92L8.29 0L1.92 0L1.92-23.20L8.29-23.20L8.29-15.14ZM32-17.28L32-17.28Q36.45-17.28 38.99-15.02L38.99-15.02L38.99-15.02Q41.54-12.77 41.54-8.45L41.54-8.45L41.54-8.45Q41.54-4.13 38.99-1.87L38.99-1.87L38.99-1.87Q36.45 0.38 32 0.38L32 0.38L32 0.38Q27.55 0.38 25.02-1.86L25.02-1.86L25.02-1.86Q22.50-4.10 22.50-8.45L22.50-8.45L22.50-8.45Q22.50-12.80 25.02-15.04L25.02-15.04L25.02-15.04Q27.55-17.28 32-17.28L32-17.28ZM32-12.96L32-12.96Q28.86-12.96 28.86-9.34L28.86-9.34L28.86-7.52L28.86-7.52Q28.86-3.94 32-3.94L32-3.94L32-3.94Q35.17-3.94 35.17-7.52L35.17-7.52L35.17-9.34L35.17-9.34Q35.17-12.96 32-12.96L32-12.96ZM51.01-15.33L51.01-15.33Q52.83-17.28 55.74-17.28L55.74-17.28L55.74-17.28Q59.17-17.28 61.02-15.06L61.02-15.06L61.02-15.06Q62.88-12.83 62.88-8.48L62.88-8.48L62.88-8.48Q62.88-4.10 61.02-1.86L61.02-1.86L61.02-1.86Q59.17 0.38 55.74 0.38L55.74 0.38L55.74 0.38Q52.22 0.38 50.37-2.40L50.37-2.40L49.82 0L44.64 0L44.64-23.20L51.01-23.20L51.01-15.33ZM53.76-12.58L53.76-12.58Q52.35-12.58 51.65-11.57L51.65-11.57L51.65-11.57Q50.94-10.56 50.94-8.96L50.94-8.96L50.94-7.90L50.94-7.90Q50.94-6.30 51.65-5.31L51.65-5.31L51.65-5.31Q52.35-4.32 53.76-4.32L53.76-4.32L53.76-4.32Q56.51-4.32 56.51-7.58L56.51-7.58L56.51-9.28L56.51-9.28Q56.51-12.58 53.76-12.58L53.76-12.58ZM72.35-15.33L72.35-15.33Q74.18-17.28 77.09-17.28L77.09-17.28L77.09-17.28Q80.51-17.28 82.37-15.06L82.37-15.06L82.37-15.06Q84.22-12.83 84.22-8.48L84.22-8.48L84.22-8.48Q84.22-4.10 82.37-1.86L82.37-1.86L82.37-1.86Q80.51 0.38 77.09 0.38L77.09 0.38L77.09 0.38Q73.57 0.38 71.71-2.40L71.71-2.40L71.17 0L65.98 0L65.98-23.20L72.35-23.20L72.35-15.33ZM75.10-12.58L75.10-12.58Q73.70-12.58 72.99-11.57L72.99-11.57L72.99-11.57Q72.29-10.56 72.29-8.96L72.29-8.96L72.29-7.90L72.29-7.90Q72.29-6.30 72.99-5.31L72.99-5.31L72.99-5.31Q73.70-4.32 75.10-4.32L75.10-4.32L75.10-4.32Q77.86-4.32 77.86-7.58L77.86-7.58L77.86-9.28L77.86-9.28Q77.86-12.58 75.10-12.58L75.10-12.58ZM98.91-0.51L98.91-0.51Q97.60 3.04 95.70 4.88L95.70 4.88L95.70 4.88Q93.79 6.72 90.37 6.72L90.37 6.72L90.37 6.72Q88.29 6.72 86.69 6.14L86.69 6.14L86.69 2.34L89.25 2.34L89.25 2.34Q91.65 2.34 92.10 0L92.10 0L85.38-16.90L92.22-16.90L95.46-5.66L95.68-5.66L98.66-16.90L104.93-16.90L98.91-0.51ZM115.58-17.28L115.58-17.28Q120.22-17.28 122.67-15.10L122.67-15.10L122.67-15.10Q125.12-12.93 125.12-8.45L125.12-8.45L125.12-7.36L112.45-7.36L112.45-7.36Q112.45-5.54 113.26-4.61L113.26-4.61L113.26-4.61Q114.08-3.68 115.84-3.68L115.84-3.68L115.84-3.68Q117.44-3.68 118.19-4.35L118.19-4.35L118.19-4.35Q118.94-5.02 118.94-6.14L118.94-6.14L125.12-6.14L125.12-6.14Q125.12-3.07 122.78-1.34L122.78-1.34L122.78-1.34Q120.45 0.38 115.97 0.38L115.97 0.38L115.97 0.38Q111.26 0.38 108.67-1.81L108.67-1.81L108.67-1.81Q106.08-4 106.08-8.45L106.08-8.45L106.08-8.45Q106.08-12.80 108.61-15.04L108.61-15.04L108.61-15.04Q111.14-17.28 115.58-17.28L115.58-17.28ZM115.84-13.22L115.84-13.22Q112.83-13.22 112.48-10.37L112.48-10.37L118.69-10.37L118.69-10.37Q118.69-11.68 117.94-12.45L117.94-12.45L117.94-12.45Q117.18-13.22 115.84-13.22L115.84-13.22ZM138.46-17.31L138.46-17.31Q139.20-17.31 139.78-17.14L139.78-17.14L139.78-17.14Q140.35-16.96 140.35-16.93L140.35-16.93L140.35-11.58L138.30-11.58L138.30-11.58Q136.32-11.58 135.44-10.56L135.44-10.56L135.44-10.56Q134.56-9.54 134.56-7.52L134.56-7.52L134.56 0L128.19 0L128.19-16.90L133.41-16.90L133.82-14.34L133.82-14.34Q134.40-15.81 135.65-16.56L135.65-16.56L135.65-16.56Q136.90-17.31 138.46-17.31L138.46-17.31Z" fill="url(#editing-glowing-gradient)"></path></g></g><style></style></svg>